<svg width="30" height="30" viewBox="0 0 30 30" fill="none" xmlns="http://www.w3.org/2000/svg">
<path d="M7.14286 0C3.20619 0 0 3.20619 0 7.14286V22.8571C0 26.7938 3.20619 30 7.14286 30H22.8571C26.7938 30 30 26.7938 30 22.8571V7.14286C30 3.20619 26.7938 0 22.8571 0H7.14286ZM10.0042 5.74498C10.4528 5.76427 10.8647 6.017 11.1133 6.40486C11.3961 6.84629 11.8351 7.53137 12.4065 8.42495C12.928 9.23995 12.9643 10.2926 12.4986 11.1426L11.4523 12.6311C11.1694 13.034 11.113 13.5496 11.303 14.0039C11.5987 14.7111 12.172 15.7978 13.1906 16.8164C14.2092 17.835 15.2959 18.4083 16.0031 18.704C16.4574 18.894 16.973 18.8376 17.3759 18.5547L18.8644 17.5084C19.7144 17.0427 20.767 17.0798 21.582 17.6005C22.4756 18.1719 23.1607 18.6109 23.6021 18.8937C23.99 19.1423 24.2427 19.5542 24.262 20.0028C24.372 22.5485 22.3998 23.5798 21.8262 23.5798C21.429 23.5798 16.6545 24.1225 11.2695 18.7375C5.88454 13.3525 6.42719 8.57796 6.42719 8.18081C6.42719 7.60724 7.45847 5.63498 10.0042 5.74498Z" fill="#EEB200"/>
</svg>
