<svg width="20" height="20" viewBox="0 0 20 20" fill="none" xmlns="http://www.w3.org/2000/svg">
<path d="M10 0C15.5138 0 20 4.48625 20 10C20 15.5138 15.5138 20 10 20C4.48625 20 0 15.5138 0 10C0 4.48625 4.48625 0 10 0ZM14.0538 11.89C13.0869 11.0244 13.2169 11.1644 14.3812 9.66687C15.0906 8.75437 15.37 7.91375 15.3031 7.66812C15.2563 7.4975 14.9856 7.50062 14.6975 7.50062C14.4087 7.50062 13.0925 7.51125 12.9619 7.51125C12.8306 7.51125 12.8337 7.51 12.7375 7.56562C12.6437 7.62 12.5838 7.72938 12.5838 7.72938C12.5838 7.72938 12.2919 8.72625 11.925 9.32688C11.1525 10.5931 10.7188 10.4969 10.5919 10.4175C10.2981 10.2344 10.3519 9.68125 10.3519 9.28813C10.3519 8.06063 10.4925 7.71125 9.92375 7.57875C9.73563 7.535 9.59688 7.50563 9.11438 7.50125C8.49438 7.49563 8.135 7.52563 7.87125 7.64438C7.67375 7.73813 7.51812 7.9025 7.61125 7.91438C7.72625 7.92938 7.98875 8.02562 8.12625 8.20625C8.30438 8.44 8.28938 8.96438 8.28938 8.96438C8.28938 8.96438 8.40063 10.1862 8.05938 10.365C7.82563 10.4881 7.505 10.4594 6.81563 9.31063C6.46313 8.72187 6.18625 7.79875 6.18625 7.79875C6.18625 7.79875 6.135 7.67437 6.04313 7.60937C5.93188 7.53 5.77625 7.50062 5.77625 7.50062L4.12812 7.50125C4.12812 7.50125 3.88 7.48812 3.78875 7.59187C3.70813 7.685 3.78187 7.8375 3.78187 7.8375C3.78187 7.8375 5.0325 10.8663 6.45875 12.37C7.46687 13.4338 8.4775 13.75 9.40875 13.75H9.94C10.2256 13.75 10.3525 13.6831 10.3525 13.5344C10.3525 13.1188 10.3494 12.6331 10.705 12.5256C11.1294 12.3975 11.7331 13.1363 12.3094 13.5175C12.6619 13.7544 13.0763 13.75 13.0763 13.75H14.7762C14.7762 13.75 15.5831 13.6756 15.2006 13.0631C15.1687 13.0125 14.9769 12.7169 14.0538 11.89Z" fill="#FAFCFE"/>
</svg>
