<svg width="30" height="30" viewBox="0 0 30 30" fill="none" xmlns="http://www.w3.org/2000/svg">
<path d="M15 0C23.2706 0 30 6.72938 30 15C30 23.2706 23.2706 30 15 30C6.72938 30 0 23.2706 0 15C0 6.72938 6.72938 0 15 0ZM21.0806 17.835C19.6303 16.5366 19.8253 16.7466 21.5719 14.5003C22.6359 13.1316 23.055 11.8706 22.9547 11.5022C22.8844 11.2462 22.4784 11.2509 22.0462 11.2509C21.6131 11.2509 19.6388 11.2669 19.4428 11.2669C19.2459 11.2669 19.2506 11.265 19.1062 11.3484C18.9656 11.43 18.8756 11.5941 18.8756 11.5941C18.8756 11.5941 18.4378 13.0894 17.8875 13.9903C16.7288 15.8897 16.0781 15.7453 15.8878 15.6262C15.4472 15.3516 15.5278 14.5219 15.5278 13.9322C15.5278 12.0909 15.7388 11.5669 14.8856 11.3681C14.6034 11.3025 14.3953 11.2584 13.6716 11.2519C12.7416 11.2434 12.2025 11.2884 11.8069 11.4666C11.5106 11.6072 11.2772 11.8538 11.4169 11.8716C11.5894 11.8941 11.9831 12.0384 12.1894 12.3094C12.4566 12.66 12.4341 13.4466 12.4341 13.4466C12.4341 13.4466 12.6009 15.2794 12.0891 15.5475C11.7384 15.7322 11.2575 15.6891 10.2234 13.9659C9.69469 13.0828 9.27938 11.6981 9.27938 11.6981C9.27938 11.6981 9.2025 11.5116 9.06469 11.4141C8.89781 11.295 8.66438 11.2509 8.66438 11.2509L6.19219 11.2519C6.19219 11.2519 5.82 11.2322 5.68313 11.3878C5.56219 11.5275 5.67281 11.7563 5.67281 11.7563C5.67281 11.7563 7.54875 16.2994 9.68812 18.555C11.2003 20.1506 12.7163 20.625 14.1131 20.625H14.91C15.3384 20.625 15.5287 20.5247 15.5287 20.3016C15.5287 19.6781 15.5241 18.9497 16.0575 18.7884C16.6941 18.5963 17.5997 19.7044 18.4641 20.2763C18.9928 20.6316 19.6144 20.625 19.6144 20.625H22.1644C22.1644 20.625 23.3747 20.5134 22.8009 19.5947C22.7531 19.5187 22.4653 19.0753 21.0806 17.835Z" fill="#EEB200"/>
</svg>
