<svg width="30" height="30" viewBox="0 0 30 30" fill="none" xmlns="http://www.w3.org/2000/svg">
<path d="M25.6168 4.39222C22.7876 1.56158 19.0254 0.00150007 15.0172 0C6.75784 0 0.0360019 6.71883 0.0330018 14.9782C0.0315017 17.6184 0.721536 20.1955 2.0326 22.4666L0 30.0015L7.84989 28.1459C10.0385 29.34 12.5016 29.9685 15.0097 29.97H15.0157C23.2737 29.97 29.9955 23.2497 30 14.9917C30.003 10.988 28.4459 7.22436 25.6168 4.39222ZM22.3481 20.332C22.0361 21.2066 20.5075 22.0496 19.8205 22.1111C19.1335 22.1741 18.4899 22.4216 15.3278 21.1751C11.5221 19.675 9.11895 15.7733 8.93294 15.5243C8.74543 15.2738 7.40437 13.4947 7.40437 11.6526C7.40437 9.81049 8.37192 8.90444 8.71543 8.53092C9.05895 8.15591 9.46397 8.0629 9.71448 8.0629C9.9635 8.0629 10.214 8.0629 10.4315 8.0719C10.6985 8.0824 10.994 8.0959 11.2746 8.71843C11.6076 9.45947 12.3351 11.3106 12.4281 11.4981C12.5211 11.6856 12.5841 11.9046 12.4596 12.1536C12.3351 12.4026 12.2721 12.5586 12.0861 12.7776C11.8986 12.9966 11.6931 13.2652 11.5251 13.4332C11.3376 13.6192 11.1426 13.8232 11.3601 14.1967C11.5791 14.5717 12.3291 15.7973 13.4422 16.7888C14.8732 18.0639 16.0778 18.4584 16.4528 18.6474C16.8278 18.8349 17.0453 18.8034 17.2644 18.5529C17.4834 18.3039 18.2004 17.4609 18.4494 17.0858C18.6984 16.7108 18.9489 16.7738 19.2925 16.8983C19.636 17.0228 21.4766 17.9289 21.8501 18.1164C22.2251 18.3039 22.4741 18.3969 22.5671 18.5529C22.6601 18.7074 22.6601 19.4575 22.3481 20.332Z" fill="#EEB200"/>
</svg>
