<svg width="20" height="20" viewBox="0 0 20 20" fill="none" xmlns="http://www.w3.org/2000/svg">
<path d="M17.0779 2.928C15.1918 1.041 12.6836 0.001 10.0115 0C4.50522 0 0.0240013 4.479 0.0220012 9.985C0.0210011 11.745 0.481024 13.463 1.35507 14.977L0 20L5.23326 18.763C6.69233 19.559 8.33441 19.978 10.0065 19.979H10.0105C15.5158 19.979 19.997 15.499 20 9.994C20.002 7.325 18.9639 4.816 17.0779 2.928ZM14.8987 13.554C14.6907 14.137 13.6717 14.699 13.2137 14.74C12.7556 14.782 12.3266 14.947 10.2185 14.116C7.68138 13.116 6.0793 10.515 5.9553 10.349C5.83029 10.182 4.93625 8.996 4.93625 7.768C4.93625 6.54 5.58128 5.936 5.81029 5.687C6.0393 5.437 6.30931 5.375 6.47632 5.375C6.64233 5.375 6.80934 5.375 6.95435 5.381C7.13236 5.388 7.32936 5.397 7.51637 5.812C7.73839 6.306 8.22341 7.54 8.28541 7.665C8.34742 7.79 8.38942 7.936 8.30641 8.102C8.22341 8.268 8.18141 8.372 8.0574 8.518C7.9324 8.664 7.79539 8.843 7.68338 8.955C7.55838 9.079 7.42837 9.215 7.57338 9.464C7.71938 9.714 8.21941 10.531 8.96145 11.192C9.91549 12.042 10.7185 12.305 10.9685 12.431C11.2186 12.556 11.3636 12.535 11.5096 12.368C11.6556 12.202 12.1336 11.64 12.2996 11.39C12.4656 11.14 12.6326 11.182 12.8616 11.265C13.0907 11.348 14.3177 11.952 14.5667 12.077C14.8167 12.202 14.9827 12.264 15.0448 12.368C15.1068 12.471 15.1068 12.971 14.8987 13.554Z" fill="#FAFCFE"/>
</svg>
